<svg xmlns="http://www.w3.org/2000/svg" width="1180" height="760" viewBox="0 0 1180 760" role="img" aria-labelledby="title desc">
  <title id="title">mempool Qwen3 logits orchestrator architecture</title>
  <desc id="desc">Architecture diagram showing measured outcomes, training rows, Qwen3 backbone, routing heads, dynamic worker registry, logit masking, and worker execution.</desc>
  <defs>
    <marker id="arrow" markerWidth="8" markerHeight="8" refX="7" refY="4" orient="auto" markerUnits="strokeWidth">
      <path d="M 0 0 L 8 4 L 0 8 z" fill="#344054"/>
    </marker>
    <linearGradient id="blue" x1="0" x2="1" y1="0" y2="1">
      <stop offset="0%" stop-color="#e8f1ff"/>
      <stop offset="100%" stop-color="#c7dcff"/>
    </linearGradient>
    <linearGradient id="green" x1="0" x2="1" y1="0" y2="1">
      <stop offset="0%" stop-color="#e7f8ef"/>
      <stop offset="100%" stop-color="#c5efd8"/>
    </linearGradient>
    <linearGradient id="amber" x1="0" x2="1" y1="0" y2="1">
      <stop offset="0%" stop-color="#fff4dc"/>
      <stop offset="100%" stop-color="#ffe0a3"/>
    </linearGradient>
    <linearGradient id="violet" x1="0" x2="1" y1="0" y2="1">
      <stop offset="0%" stop-color="#f1eaff"/>
      <stop offset="100%" stop-color="#d9c9ff"/>
    </linearGradient>
    <style>
      .bg { fill: #fbfcfe; }
      .panel { fill: #ffffff; stroke: #d0d5dd; stroke-width: 1.5; rx: 8; }
      .box { stroke: #344054; stroke-width: 1.4; rx: 8; }
      .blue { fill: url(#blue); }
      .green { fill: url(#green); }
      .amber { fill: url(#amber); }
      .violet { fill: url(#violet); }
      .muted { fill: #f2f4f7; stroke: #667085; }
      .text { font-family: Inter, ui-sans-serif, system-ui, -apple-system, BlinkMacSystemFont, "Segoe UI", sans-serif; fill: #101828; }
      .title { font-size: 28px; font-weight: 760; }
      .subtitle { font-size: 14px; fill: #475467; }
      .label { font-size: 15px; font-weight: 700; }
      .small { font-size: 12.5px; fill: #344054; }
      .tiny { font-size: 11px; fill: #667085; }
      .arrow { stroke: #344054; stroke-width: 1.6; fill: none; marker-end: url(#arrow); stroke-linecap: round; stroke-linejoin: round; }
      .dash { stroke-dasharray: 6 7; }
      .metric { font-size: 13px; fill: #175cd3; font-weight: 700; }
    </style>
  </defs>

  <rect class="bg" x="0" y="0" width="1180" height="760"/>
  <text class="text title" x="48" y="52">mempool Orchestrator Architecture</text>
  <text class="text subtitle" x="48" y="78">Current Qwen3 0.6B logits-head router plus the planned dynamic worker registry and expandable-head path.</text>

  <rect class="panel" x="36" y="105" width="1108" height="600"/>
  <text class="text label" x="60" y="136">Measured Training Loop</text>
  <text class="text label" x="650" y="136">Runtime Routing Loop</text>

  <rect class="box amber" x="70" y="175" width="210" height="92"/>
  <text class="text label" x="92" y="207">Benchmarks</text>
  <text class="text small" x="92" y="231">BigCodeBench-Hard</text>
  <text class="text small" x="92" y="250">future Terminal-Bench traces</text>

  <rect class="box amber" x="70" y="315" width="210" height="100"/>
  <text class="text label" x="92" y="347">Worker Runs</text>
  <text class="text small" x="92" y="371">pass/fail, latency, cost</text>
  <text class="text small" x="92" y="390">repeated samples</text>

  <rect class="box green" x="340" y="244" width="220" height="108"/>
  <text class="text label" x="364" y="276">Routing Dataset</text>
  <text class="text small" x="364" y="300">53 train rows, 13 held-out</text>
  <text class="text small" x="364" y="319">soft worker targets</text>
  <text class="text tiny" x="364" y="338">HF dataset: routing rows</text>

  <rect class="box blue" x="630" y="195" width="230" height="94"/>
  <text class="text label" x="654" y="227">Frozen Backbone</text>
  <text class="text small" x="654" y="251">Qwen/Qwen3-0.6B</text>
  <text class="text tiny" x="654" y="270">task text to hidden state</text>

  <rect class="box blue" x="630" y="340" width="230" height="130"/>
  <text class="text label" x="654" y="372">Lightweight Heads</text>
  <text class="text small" x="654" y="396">worker logits</text>
  <text class="text small" x="654" y="415">workflow logits</text>
  <text class="text small" x="654" y="434">verifier probability</text>
  <text class="text small" x="654" y="453">abstain probability</text>

  <rect class="box violet" x="920" y="180" width="180" height="124"/>
  <text class="text label" x="944" y="212">Worker Registry</text>
  <text class="text small" x="944" y="236">canonical IDs</text>
  <text class="text small" x="944" y="255">provider bindings</text>
  <text class="text small" x="944" y="274">capability metadata</text>
  <text class="text tiny" x="944" y="293">planned v2 layer</text>

  <rect class="box violet" x="920" y="346" width="180" height="106"/>
  <text class="text label" x="944" y="378">Logit Mask</text>
  <text class="text small" x="944" y="402">mute unavailable</text>
  <text class="text small" x="944" y="421">cost/policy filters</text>
  <text class="text tiny" x="944" y="440">softmax over allowed set</text>

  <rect class="box green" x="910" y="520" width="205" height="88"/>
  <text class="text label" x="934" y="552">Worker Execution</text>
  <text class="text small" x="934" y="576">Qwen Coder, GLM, Kimi,</text>
  <text class="text small" x="934" y="595">DeepSeek, future models</text>

  <rect class="box muted" x="335" y="505" width="250" height="88"/>
  <text class="text label" x="360" y="537">Expandable Head Refresh</text>
  <text class="text small" x="360" y="561">copy old label weights</text>
  <text class="text small" x="360" y="580">initialize and train new labels</text>

  <path class="arrow" d="M 280 221 C 315 221 315 278 340 286"/>
  <path class="arrow" d="M 175 267 L 175 315"/>
  <path class="arrow" d="M 280 365 C 315 365 315 320 340 314"/>
  <path class="arrow" d="M 560 298 C 588 298 602 246 630 242"/>
  <path class="arrow" d="M 745 289 L 745 340"/>
  <path class="arrow" d="M 860 405 L 920 405"/>
  <path class="arrow" d="M 1010 304 L 1010 346"/>
  <path class="arrow" d="M 1010 452 L 1010 520"/>
  <path class="arrow dash" d="M 920 242 L 860 242"/>
  <path class="arrow dash" d="M 585 536 C 612 506 617 456 630 428"/>
  <path class="arrow dash" d="M 1010 608 L 1010 632 L 175 632 L 175 415"/>

  <text class="text metric" x="650" y="514">v1 held-out worker accuracy: 0.6923</text>
  <text class="text metric" x="650" y="536">v1 workflow accuracy: 0.7692</text>
  <text class="text tiny" x="650" y="558">Checkpoint stores heads only; Qwen3 base is loaded separately.</text>
  <text class="text tiny" x="60" y="678">Next roadmap: registry-backed labels, runtime masks, expanded-head refreshes, and larger measured datasets with diverse worker winners.</text>
</svg>
